<?xml version="1.0" encoding="utf-8"?>
<!-- Generator: Adobe Illustrator 26.2.1, SVG Export Plug-In . SVG Version: 6.00 Build 0)  -->
<svg version="1.1" id="Layer_1" xmlns="http://www.w3.org/2000/svg" xmlns:xlink="http://www.w3.org/1999/xlink" x="0px" y="0px"
	 viewBox="0 0 360 360" style="enable-background:new 0 0 360 360;" xml:space="preserve">
<style type="text/css">
	.st0{fill:#444345;}
</style>
<g>
	<path class="st0" d="M294.7,88.6c-0.1-0.1-0.1-0.2-0.2-0.3c-0.1-0.1-0.2-0.1-0.2-0.2l0,0c-15-15-32.8-26.9-52.5-35.1
		c-19.5-8-40.6-12.2-61.8-12.2l0,0l0,0c-42.8,0-83.9,17-114.2,47.2c-0.1,0.1-0.3,0.1-0.4,0.2s-0.1,0.3-0.2,0.4
		C34.9,119,18,160.1,18,203s17.1,84,47.4,114.3c1.2,1.2,2.8,1.8,4.5,1.9c1.7,0,3.3-0.7,4.5-1.9l18.4-19.2c1.2-1.2,1.8-2.8,1.8-4.5
		s-0.7-3.3-1.9-4.4c-1.2-1.2-2.8-1.8-4.5-1.8s-3.3,0.7-4.4,2L70,303.8c-23.9-25.9-37.8-59.5-39.1-94.7h19.9c3.5,0,6.3-2.8,6.3-6.3
		s-2.8-6.3-6.3-6.3h-20c1.5-35.2,15.4-68.8,39.3-94.7l14,14.1c2.5,2.5,6.5,2.5,8.9,0c2.5-2.5,2.5-6.4,0-8.9L79,92.9l0,0
		C104.9,69,138.5,55,173.7,53.6v19.9c0,3.5,2.8,6.3,6.3,6.3s6.3-2.8,6.3-6.3V53.6C221.5,55,255.1,69,281,92.9l-14.1,14
		c-2.5,2.5-2.5,6.4,0,8.9s6.4,2.5,8.9,0l14.2-14l0,0c23.9,25.9,37.8,59.5,39.3,94.7h-19.9c-3.5,0-6.3,2.8-6.3,6.3s2.8,6.3,6.3,6.3
		h19.9c-1.4,35.2-15.3,68.8-39.1,94.7l-13.8-14.4c-2.4-2.5-6.4-2.6-8.9-0.2s-2.6,6.4-0.2,8.9l18.4,19.2l0,0c1.2,1.2,2.8,1.9,4.5,1.9
		h0.1c1.7,0,3.3-0.7,4.5-1.9C324.9,287,342,245.9,342,203S325,119,294.7,88.6L294.7,88.6z"/>
	<path class="st0" d="M183.1,228.2c7.5,0,14.6-3,19.8-8.3s8.1-12.5,8-20s-3.2-14.6-8.7-19.7c-9-8.5-72.7-42.2-80-46l0,0
		c-2.5-1.3-5.6-0.8-7.5,1.2s-2.3,5.1-0.9,7.6c4.2,7,41,69,50,77.5C169.1,225.4,175.9,228.2,183.1,228.2L183.1,228.2z M193.5,189.3
		c3.9,3.7,5.6,9.3,4.3,14.6s-5.3,9.5-10.5,11s-10.8,0.2-14.8-3.6C168,207,151,180,136.4,156C161.2,169.5,189,185.1,193.5,189.3
		L193.5,189.3z"/>
</g>
</svg>
