<?xml version="1.0" encoding="utf-8"?>
<!-- Generator: Adobe Illustrator 26.2.1, SVG Export Plug-In . SVG Version: 6.00 Build 0)  -->
<svg version="1.1" id="Layer_1" xmlns="http://www.w3.org/2000/svg" xmlns:xlink="http://www.w3.org/1999/xlink" x="0px" y="0px"
	 viewBox="0 0 360 360" style="enable-background:new 0 0 360 360;" xml:space="preserve">
<style type="text/css">
	.st0{fill-rule:evenodd;clip-rule:evenodd;fill:#444345;}
</style>
<path class="st0" d="M318.2,83.7H311v-7.2c0-13.2-10.7-23.8-23.8-23.8H280v-7.2c0-13.2-10.7-23.8-23.8-23.8H41.8
	C28.7,21.6,18,32.3,18,45.4v214.2c0,13.2,10.7,23.8,23.8,23.8H49v7.2c0,13.2,10.7,23.8,23.8,23.8H80v7.2c0,13.2,10.7,23.8,23.8,23.8
	H318c13.2,0,23.8-10.7,23.8-23.8V107.5C342,94.4,331.3,83.7,318.2,83.7L318.2,83.7z M41.8,272.3c-7,0-12.6-5.7-12.6-12.6V45.4
	c0-7,5.7-12.6,12.6-12.6H256c7,0,12.6,5.7,12.6,12.6v214.2c0,7-5.7,12.6-12.6,12.6L41.8,272.3L41.8,272.3z M72.9,303.3
	c-6.9,0-12.6-5.7-12.6-12.6v-7.2h195.8c13.2,0,23.8-10.7,23.8-23.8V63.9h7.2c7,0,12.6,5.7,12.6,12.6v214.2c0,6.9-5.7,12.6-12.6,12.6
	L72.9,303.3z M330.8,321.8c0,7-5.7,12.6-12.6,12.6H103.9c-7,0-12.6-5.7-12.6-12.6v-7.2h195.8c13.2,0,23.8-10.7,23.8-23.8V94.9h7.2
	c7,0,12.6,5.7,12.6,12.6L330.8,321.8z M52.8,116c0.9,0,1.8-0.2,2.6-0.7c9.7-5.2,15.8-15.2,15.8-26.2c0-10.2,8.3-18.5,18.5-18.5
	s19.6-5.2,25.1-13.8c1.7-2.6,0.9-6.1-1.7-7.7c-2.6-1.7-6.1-0.9-7.7,1.7c-3.4,5.4-9.2,8.6-15.6,8.6C73.3,59.5,60,72.8,60,89.2
	c0,6.8-3.8,13.1-9.8,16.3c-2.7,1.5-3.8,4.9-2.3,7.6C48.9,115,50.8,116,52.8,116L52.8,116z M51.2,187.8c2.2,0,4.3-1.3,5.2-3.4
	c1.5-3.7,2.3-7.6,2.3-11.6c0-10.2,8.3-18.5,18.5-18.5c16.4,0,29.7-13.3,29.7-29.7c0-10.2,8.3-18.5,18.5-18.5
	c16.4,0,29.7-13.3,29.7-29.7c0-7.8,5-14.8,12.4-17.4c2.9-1,4.5-4.2,3.4-7.1c-1-2.9-4.2-4.5-7.1-3.4c-11.9,4.2-19.9,15.4-19.9,28
	c0,10.2-8.3,18.5-18.5,18.5c-16.4,0-29.7,13.3-29.7,29.7c0,10.2-8.3,18.5-18.5,18.5c-16.4,0-29.7,13.3-29.7,29.7
	c0,2.5-0.5,4.9-1.4,7.2c-1.2,2.9,0.1,6.1,3,7.4C49.7,187.7,50.4,187.8,51.2,187.8L51.2,187.8z M142.4,160.3
	c0-10.2,8.3-18.5,18.5-18.5c16.4,0,29.7-13.3,29.7-29.7c0-10.2,8.3-18.5,18.5-18.5c16.4,0,29.7-13.3,29.7-29.7
	c0-2.7,0.6-5.4,1.7-7.8c1.3-2.8,0.1-6.1-2.7-7.5c-2.8-1.3-6.1-0.1-7.5,2.7c-1.8,3.9-2.8,8.2-2.8,12.5c0,10.2-8.3,18.5-18.5,18.5
	c-16.4,0-29.7,13.3-29.7,29.7c0,10.2-8.3,18.5-18.5,18.5c-16.4,0-29.7,13.3-29.7,29.7c0,10.2-8.3,18.5-18.5,18.5
	c-16.4,0-29.7,13.3-29.7,29.7c0,10.2-8.3,18.5-18.5,18.5c-5.1,0-10.1,1.3-14.5,3.8c-2.7,1.5-3.7,4.9-2.2,7.6c1,1.8,2.9,2.9,4.9,2.9
	c0.9,0,1.9-0.2,2.7-0.7c2.7-1.5,5.8-2.3,9-2.3c16.4,0,29.7-13.3,29.7-29.7c0-10.2,8.3-18.5,18.5-18.5
	C129,190,142.4,176.7,142.4,160.3L142.4,160.3z M226.1,147.7c0-10.2,8.3-18.5,18.5-18.5c3.1,0,5.6-2.5,5.6-5.6s-2.5-5.6-5.6-5.6
	c-16.4,0-29.7,13.3-29.7,29.7c0,10.2-8.3,18.5-18.5,18.5c-16.4,0-29.7,13.3-29.7,29.7c0,10.2-8.3,18.5-18.5,18.5
	c-16.4,0-29.7,13.3-29.7,29.7c0,1.2-0.1,2.5-0.4,3.7c-0.6,3,1.3,6,4.4,6.6c0.4,0.1,0.8,0.1,1.1,0.1c2.6,0,5-1.8,5.5-4.5
	c0.4-1.9,0.6-3.9,0.6-5.9c0-10.2,8.3-18.5,18.5-18.5c16.4,0,29.7-13.3,29.7-29.7c0-10.2,8.3-18.5,18.5-18.5
	C212.7,177.4,226.1,164.1,226.1,147.7L226.1,147.7z M245,196.3c-3.5,3.5-8.1,5.4-13,5.4c-16.4,0-29.7,13.3-29.7,29.7
	c0,4.9-1.9,9.6-5.4,13.1c-2.2,2.2-2.2,5.7,0,7.9c1.1,1.1,2.5,1.6,4,1.6c1.4,0,2.9-0.5,4-1.6c5.6-5.6,8.7-13.1,8.7-21
	c0-10.2,8.3-18.5,18.5-18.5c7.9,0,15.4-3.1,21-8.7c2.2-2.2,2.2-5.7,0-7.9C250.7,194.2,247.2,194.2,245,196.3L245,196.3z"/>
</svg>
