<?xml version="1.0" encoding="utf-8"?>
<!-- Generator: Adobe Illustrator 26.2.1, SVG Export Plug-In . SVG Version: 6.00 Build 0)  -->
<svg version="1.1" id="Layer_1" xmlns="http://www.w3.org/2000/svg" xmlns:xlink="http://www.w3.org/1999/xlink" x="0px" y="0px"
	 viewBox="0 0 360 360" style="enable-background:new 0 0 360 360;" xml:space="preserve">
<style type="text/css">
	.st0{fill:#444345;}
</style>
<g>
	<path class="st0" d="M184.9,211.2c-14.5,0-26.1-11.7-26.1-26.1c0-14.5,11.7-26.1,26.1-26.1c14.5,0,26.1,11.7,26.1,26.1
		C211,199.6,199.2,211.2,184.9,211.2z M184.9,167.2c-9.9,0-17.9,8-17.9,17.9s8,17.9,17.9,17.9s17.9-8,17.9-17.9
		C202.8,175.2,194.8,167.2,184.9,167.2z"/>
	<path class="st0" d="M167.6,170.1l-14.1-23c-7.6-12.4-9.6-27.5-5.2-41.4l25.1-80.9c1.6-5.1,6.1-8.5,11.5-8.5s9.9,3.3,11.5,8.5
		l25.2,80.8c4.3,13.9,2.5,29-5.2,41.4l-14.1,23l-7-4.2l14.1-23c6.4-10.4,7.9-23,4.3-34.7l-25.2-80.8c-0.8-2.5-3-2.7-3.7-2.7
		s-2.9,0.2-3.7,2.7L156,108.1c-3.6,11.6-2.1,24.3,4.3,34.7l14.1,23L167.6,170.1z"/>
	<path class="st0" d="M180.5,207.6l-9.2,17.1v113.9c0,2.3-8.2,2.3-8.2,0V238.4c-7.2,9.2-17.3,15.8-28.8,18.3l-82.6,18.6
		c-0.9,0.2-1.8,0.3-2.7,0.3c-4.2,0-8-2.2-10.3-6.1c-2.7-4.7-2.1-10.2,1.6-14.1l57.4-62.2c9.9-10.7,23.9-16.6,38.5-16.2l27.1,0.8
		l-0.2,8.2l-27.1-0.8c-12.2-0.3-23.9,4.7-32.2,13.6L46.4,261c-1.8,2-0.9,3.9-0.5,4.6c0.3,0.5,1.6,2.4,4.2,1.8l82.6-18.6
		c12-2.7,22.1-10.3,27.9-21.1l3.2-5.9l9.7-17.9L180.5,207.6z"/>
	<path class="st0" d="M331,269.5c-2.2,3.8-6.1,6-10.3,6c-0.9,0-1.8-0.1-2.7-0.3l-82.6-18.6c-11.5-2.6-21.6-9.1-28.8-18.3v100.2
		c0,2.3-8.2,2.3-8.2,0V224.7l-9.2-17.1l7.2-3.9l9.6,17.7l0.2,0.3l3,5.7c5.9,10.8,16,18.5,27.9,21.1l82.6,18.6
		c2.6,0.5,3.9-1.3,4.2-1.8s1.3-2.6-0.5-4.6l-57.3-62c-8.3-9-20.1-13.9-32.3-13.6l-27.1,0.8l-0.2-8.2l27.1-0.8
		c14.6-0.4,28.6,5.5,38.5,16.2l57.4,62.2C333,259.2,333.7,264.8,331,269.5L331,269.5z"/>
	<path class="st0" d="M184.9,197.4c-6.7,0-12.3-5.4-12.3-12.3c0-2.3,1.8-4.1,4.1-4.1s4.1,1.8,4.1,4.1s1.8,4.1,4.1,4.1
		s4.1-1.8,4.1-4.1s-1.8-4.1-4.1-4.1s-4.1-1.8-4.1-4.1s1.8-4.1,4.1-4.1c6.7,0,12.3,5.4,12.3,12.3
		C197.3,191.9,191.6,197.4,184.9,197.4L184.9,197.4z"/>
	<path class="st0" d="M37.7,230c-1.7,0-3.4-1.2-3.9-2.9c-7.1-24.5-8.4-50.7-3.7-75.8c0.4-2.2,2.5-3.7,4.8-3.3
		c2.2,0.4,3.7,2.5,3.3,4.8c-4.5,23.9-3.3,48.8,3.5,72.1c0.7,2.2-0.7,4.5-2.8,5C38.5,230,38.1,230,37.7,230L37.7,230z"/>
	<path class="st0" d="M60.3,205.6c-2,0-3.7-1.4-4-3.5c-1.5-9.8-2-19.7-1.2-29.6c0.1-2.3,2.1-3.9,4.3-3.8c2.3,0.1,3.9,2.1,3.8,4.3
		c-0.7,9.2-0.2,18.6,1.2,27.7c0.3,2.2-1.2,4.3-3.4,4.7C60.8,205.4,60.5,205.6,60.3,205.6L60.3,205.6z"/>
	<path class="st0" d="M288.9,75.2c-1,0-1.8-0.3-2.6-1c-18.5-15.9-40.7-27.3-64.1-33c-2.2-0.5-3.5-2.7-3-4.9s2.7-3.5,4.9-3
		c24.8,6.1,48,18,67.5,34.8c1.7,1.4,2,4,0.4,5.8C291.2,74.8,290,75.2,288.9,75.2L288.9,75.2z"/>
	<path class="st0" d="M258.4,86.5c-0.8,0-1.5-0.2-2.3-0.7c-7.7-5.1-16-9.5-24.6-12.8c-2.1-0.9-3.2-3.2-2.3-5.3
		c0.9-2.1,3.2-3.2,5.3-2.3c9.2,3.6,18,8.2,26.2,13.7c1.8,1.3,2.4,3.8,1.1,5.7C261,85.9,259.7,86.5,258.4,86.5L258.4,86.5z"/>
	<path class="st0" d="M231.5,336.2c-1.6,0-3.3-1.1-3.8-2.7c-0.8-2.2,0.3-4.5,2.5-5.2c22.9-8,43.9-21.5,60.7-39
		c1.5-1.6,4.1-1.6,5.8-0.1c1.6,1.5,1.6,4.1,0.1,5.8c-17.6,18.4-39.7,32.6-63.8,41.1C232.5,336.2,232.1,336.2,231.5,336.2
		L231.5,336.2z"/>
	<path class="st0" d="M237.1,304.3c-1.5,0-2.9-0.9-3.7-2.3c-1-2.1-0.1-4.5,1.8-5.4c8.3-4,16.2-9,23.5-14.9c1.7-1.4,4.3-1.1,5.8,0.7
		c1.4,1.7,1.1,4.3-0.7,5.8c-7.7,6.2-16.1,11.5-24.9,15.9C238.3,304.1,237.6,304.3,237.1,304.3L237.1,304.3z"/>
</g>
</svg>
