<?xml version="1.0" encoding="utf-8"?>
<!-- Generator: Adobe Illustrator 26.2.1, SVG Export Plug-In . SVG Version: 6.00 Build 0)  -->
<svg version="1.1" id="Layer_1" xmlns="http://www.w3.org/2000/svg" xmlns:xlink="http://www.w3.org/1999/xlink" x="0px" y="0px"
	 viewBox="0 0 360 360" style="enable-background:new 0 0 360 360;" xml:space="preserve">
<style type="text/css">
	.st0{fill:#444345;}
</style>
<g>
	<path class="st0" d="M252,208.4H108c-7.1,0-14-1.4-20.4-4.3l-24.8-10.9c-2.6-1.1-3.7-4.1-2.6-6.7c1.1-2.6,4.1-3.7,6.7-2.6
		l24.8,10.9c5.2,2.3,10.7,3.4,16.4,3.4H252c5.7,0,11.2-1.2,16.4-3.4l24.8-10.9c2.6-1.1,5.5,0,6.7,2.6c1.1,2.6,0,5.5-2.6,6.7
		l-24.8,10.9C266,206.9,259.1,208.4,252,208.4L252,208.4z"/>
	<path class="st0" d="M301.4,290.9H58.6c-10.9,0-19.7-8.8-19.7-19.7v-47.4c0-6,2-12,5.6-16.8l4.1,3l-4.1-3L91,145
		c4.7-6.3,10.9-11.5,17.9-15s14.9-5.4,22.8-5.4h96.5c7.9,0,15.7,1.9,22.8,5.4c7,3.5,13.2,8.7,17.9,15l46.6,62.2
		c3.6,4.8,5.6,10.8,5.6,16.8v47.4C321.1,282.1,312.3,290.9,301.4,290.9L301.4,290.9z M131.7,134.7c-12.8,0-25,6.1-32.6,16.3
		l-46.6,62.2c-2.3,3.1-3.6,6.9-3.6,10.7v47.4c0,5.3,4.3,9.6,9.6,9.6h242.8c5.3,0,9.6-4.3,9.6-9.6v-47.4c0-3.8-1.3-7.6-3.6-10.7
		L260.8,151c-7.7-10.2-19.8-16.3-32.6-16.3H131.7z"/>
	<path class="st0" d="M218.3,262h-76.7c-5.3,0-9.9-3.5-11.4-8.6l-3.2-11.1c-1-3.6-0.3-7.4,1.9-10.4c2.3-3,5.7-4.7,9.4-4.7h83.1
		c3.7,0,7.2,1.7,9.4,4.7c2.3,3,3,6.8,1.9,10.4l-3.2,11.1C228.3,258.5,223.6,262,218.3,262L218.3,262z M138.5,237.3
		c-0.7,0-1.2,0.4-1.4,0.7s-0.5,0.8-0.3,1.5l3.2,11.1c0.2,0.7,0.9,1.2,1.6,1.2h76.7c0.8,0,1.4-0.5,1.6-1.2l3.2-11.1
		c0.2-0.7-0.1-1.2-0.3-1.5s-0.6-0.7-1.4-0.7H138.5z"/>
	<path class="st0" d="M284.1,260.1c-0.2,0-0.5,0-0.7,0l-17.6-0.9c-7.8-0.4-13.9-6.8-13.9-14.6s6.1-14.2,13.9-14.6l17.6-0.9
		c4-0.2,7.9,1.3,10.8,4s4.5,6.6,4.5,10.6v1.8c0,4-1.7,7.8-4.5,10.6C291.5,258.6,287.8,260.1,284.1,260.1L284.1,260.1z M284.1,239.2
		c-0.1,0-0.2,0-0.2,0l-17.6,0.9c-2.4,0.1-4.3,2.1-4.3,4.5s1.9,4.4,4.3,4.5l17.6,0.9c1.2,0.1,2.4-0.4,3.3-1.2c0.9-0.9,1.4-2,1.4-3.2
		v-1.8c0-1.2-0.5-2.4-1.4-3.2C286.4,239.7,285.3,239.2,284.1,239.2L284.1,239.2z"/>
	<path class="st0" d="M75.9,260.1c-3.7,0-7.4-1.4-10.1-4c-2.9-2.7-4.5-6.6-4.5-10.6v-1.8c0-4,1.7-7.8,4.5-10.6
		c2.9-2.7,6.8-4.2,10.8-4l17.6,0.9c7.8,0.4,13.9,6.8,13.9,14.6s-6.1,14.2-13.9,14.6l-17.6,0.9l-0.3-5.1l0.3,5.1
		C76.4,260.1,76.1,260.1,75.9,260.1L75.9,260.1z M75.9,239.2c-1.2,0-2.2,0.4-3.1,1.2c-0.9,0.9-1.4,2-1.4,3.2v1.8
		c0,1.2,0.5,2.4,1.4,3.2c0.9,0.9,2.1,1.3,3.3,1.2l17.6-0.9c2.4-0.1,4.3-2.1,4.3-4.5s-1.9-4.4-4.3-4.5L76.1,239
		C76,239.2,75.9,239.2,75.9,239.2L75.9,239.2z"/>
	<path class="st0" d="M87.5,319.2H77.3c-9.8,0-17.7-7.9-17.7-17.7v-15.6c0-2.8,2.3-5.1,5.1-5.1h35.5c2.8,0,5.1,2.3,5.1,5.1v15.6
		C105.2,311.3,97.3,319.2,87.5,319.2L87.5,319.2z M69.7,290.9v10.5c0,4.2,3.4,7.6,7.6,7.6h10.2c4.2,0,7.6-3.4,7.6-7.6v-10.5H69.7z"
		/>
	<path class="st0" d="M282.7,319.2h-10.2c-9.8,0-17.7-7.9-17.7-17.7v-15.6c0-2.8,2.3-5.1,5.1-5.1h35.5c2.8,0,5.1,2.3,5.1,5.1v15.6
		C300.4,311.3,292.5,319.2,282.7,319.2L282.7,319.2z M264.9,290.9v10.5c0,4.2,3.4,7.6,7.6,7.6h10.2c4.2,0,7.6-3.4,7.6-7.6v-10.5
		H264.9z"/>
	<path class="st0" d="M56.9,204H28.5c-5.8,0-10.5-4.7-10.5-10.5v-9.8c0-5.8,4.7-10.5,10.5-10.5H48c4,0,7.8,2.4,9.5,6l6.7,13.9
		c1.2,2.5,0.1,5.5-2.3,6.7C61.5,202.2,59.4,204,56.9,204L56.9,204z M28.5,183.2c-0.2,0-0.4,0.2-0.4,0.4v9.8c0,0.2,0.2,0.4,0.4,0.4
		h24.9l-5-10.4c-0.1-0.1-0.2-0.2-0.4-0.2H28.5z"/>
	<path class="st0" d="M331.4,204H303c-2.5,0-4.6-1.8-5-4.2c-2.5-1.2-3.5-4.2-2.3-6.7l6.7-13.9c1.7-3.6,5.5-6,9.5-6h19.5
		c5.8,0,10.5,4.7,10.5,10.5v9.8C342,199.2,337.3,204,331.4,204L331.4,204z M306.6,193.9h24.9c0.2,0,0.4-0.2,0.4-0.4v-9.8
		c0-0.2-0.2-0.4-0.4-0.4H312c-0.2,0-0.3,0.1-0.4,0.2L306.6,193.9z"/>
	<path class="st0" d="M200.3,110.6c-1.3,0-2.6-0.5-3.6-1.5c-4.5-4.5-10.4-6.9-16.7-6.9s-12.3,2.5-16.7,6.9c-2,2-5.2,2-7.2,0
		s-2-5.2,0-7.2C162.5,95.5,171,92,180,92s17.5,3.5,23.9,9.9c2,2,2,5.2,0,7.2C202.9,110.1,201.6,110.6,200.3,110.6L200.3,110.6z"/>
	<path class="st0" d="M212.9,90.2c-1.3,0-2.6-0.5-3.6-1.5c-7.8-7.8-18.3-12.2-29.4-12.2s-21.5,4.3-29.4,12.2c-2,2-5.2,2-7.2,0
		s-2-5.2,0-7.2c9.8-9.8,22.7-15.1,36.5-15.1s26.8,5.4,36.5,15.1c2,2,2,5.2,0,7.2C215.5,89.7,214.2,90.2,212.9,90.2L212.9,90.2z"/>
	<path class="st0" d="M225.6,69.8c-1.3,0-2.6-0.5-3.6-1.5c-11.2-11.2-26.2-17.4-42-17.4s-30.8,6.2-42,17.4c-2,2-5.2,2-7.2,0
		s-2-5.2,0-7.2C143.9,48,161.4,40.8,180,40.8s36,7.2,49.2,20.4c2,2,2,5.2,0,7.2C228.2,69.3,226.9,69.8,225.6,69.8L225.6,69.8z"/>
</g>
</svg>
