<?xml version="1.0" encoding="utf-8"?>
<!-- Generator: Adobe Illustrator 26.2.1, SVG Export Plug-In . SVG Version: 6.00 Build 0)  -->
<svg version="1.1" id="Layer_1" xmlns="http://www.w3.org/2000/svg" xmlns:xlink="http://www.w3.org/1999/xlink" x="0px" y="0px"
	 viewBox="0 0 360 360" style="enable-background:new 0 0 360 360;" xml:space="preserve">
<style type="text/css">
	.st0{fill:#444345;}
</style>
<g>
	<path class="st0" d="M117.6,96.6c2.1,2,5,2.7,7.8,2c2.8-0.8,4.9-2.9,5.7-5.7c0.8-2.8,0-5.7-2-7.8L96.6,52.8c-2.1-2-5-2.7-7.8-2
		c-2.8,0.8-4.9,2.9-5.7,5.7c-0.8,2.8,0,5.7,2,7.8L117.6,96.6z"/>
	<path class="st0" d="M236.7,99c2.2,0,4.2-0.9,5.7-2.4l32.4-32.4c2-2.1,2.7-5,2-7.8c-0.8-2.8-2.9-4.9-5.7-5.7c-2.8-0.8-5.7,0-7.8,2
		L231,85.2c-1.5,1.5-2.4,3.6-2.4,5.7s0.9,4.2,2.4,5.7C232.5,98.1,234.5,99,236.7,99L236.7,99z"/>
	<path class="st0" d="M180,27.5c-2.1,0-4.2,0.9-5.7,2.4s-2.4,3.6-2.4,5.7v45.8c0,2.9,1.5,5.6,4,7s5.6,1.4,8.1,0s4-4.1,4-7V35.6
		c0-2.2-0.9-4.2-2.4-5.7C184.2,28.3,182.1,27.5,180,27.5L180,27.5z"/>
	<path class="st0" d="M117.6,263.4l-32.4,32.4c-1.6,1.5-2.5,3.6-2.5,5.8c0,2.2,0.8,4.3,2.4,5.8c1.5,1.5,3.6,2.4,5.8,2.4
		c2.2,0,4.2-0.9,5.8-2.5l32.4-32.4c2-2.1,2.7-5,2-7.8c-0.8-2.8-2.9-4.9-5.7-5.7C122.6,260.6,119.6,261.4,117.6,263.4L117.6,263.4z"
		/>
	<path class="st0" d="M242.4,263.4c-2.1-2-5-2.7-7.8-2c-2.8,0.8-4.9,2.9-5.7,5.7c-0.8,2.8,0,5.7,2,7.8l32.4,32.4c2.1,2,5,2.7,7.8,2
		c2.8-0.8,4.9-2.9,5.7-5.7c0.8-2.8,0-5.7-2-7.8L242.4,263.4z"/>
	<path class="st0" d="M180,270.5c-2.1,0-4.2,0.9-5.7,2.4s-2.4,3.6-2.4,5.7v45.8c0,2.9,1.5,5.6,4,7s5.6,1.4,8.1,0s4-4.1,4-7v-45.8
		c0-2.1-0.9-4.2-2.4-5.7C184.2,271.3,182.1,270.5,180,270.5L180,270.5z"/>
	<path class="st0" d="M82.8,131.4h72.9c2.9,0,5.6-1.5,7-4.1c1.4-2.5,1.4-5.6,0-8.1s-4.1-4.1-7-4.1H82.8c-23.1,0-44.5,12.4-56.1,32.4
		s-11.6,44.8,0,64.8s33,32.4,56.1,32.4h72.9c2.9,0,5.6-1.5,7-4.1c1.4-2.5,1.4-5.6,0-8.1s-4.1-4.1-7-4.1H82.8
		c-17.4,0-33.4-9.3-42.1-24.3s-8.7-33.6,0-48.6S65.4,131.4,82.8,131.4L82.8,131.4z"/>
	<path class="st0" d="M277.2,115.2h-72.9c-2.9,0-5.6,1.5-7,4.1c-1.4,2.5-1.4,5.6,0,8.1s4.1,4.1,7,4.1h72.9
		c17.4,0,33.4,9.3,42.1,24.3s8.7,33.6,0,48.6s-24.7,24.3-42.1,24.3h-72.9c-2.9,0-5.6,1.5-7,4.1c-1.4,2.5-1.4,5.6,0,8.1
		s4.1,4.1,7,4.1h72.9c23.1,0,44.5-12.4,56.1-32.4s11.6-44.8,0-64.8C321.7,127.6,300.4,115.2,277.2,115.2L277.2,115.2z"/>
</g>
</svg>
