<?xml version="1.0" encoding="utf-8"?>
<!-- Generator: Adobe Illustrator 26.2.1, SVG Export Plug-In . SVG Version: 6.00 Build 0)  -->
<svg version="1.1" id="Layer_1" xmlns="http://www.w3.org/2000/svg" xmlns:xlink="http://www.w3.org/1999/xlink" x="0px" y="0px"
	 viewBox="0 0 360 360" style="enable-background:new 0 0 360 360;" xml:space="preserve">
<style type="text/css">
	.st0{fill:#444345;}
</style>
<path class="st0" d="M92.4,342c-1.6,0-3.1-0.6-4.2-1.7l-15.4-15.4l-29-28.7L29,281.4c-2.3-2.3-2.3-6.1,0-8.4s6.1-2.3,8.4,0
	l10.7,10.7l28.1-28.1l-29.7-29.8l0,0c-2.3-2.3-2.3-6.1,0-8.4c2.3-2.3,6.1-2.3,8.4,0l14.8,14.5L198,103.6c2.3-2.3,6.1-2.3,8.4,0
	l12.6,12.6l19.5-19.5c1.1-1.1,2.6-1.8,4.2-1.8c1.6,0,3.1,0.6,4.2,1.8l8.6,8.6l52.9-52.9c2.3-2.3,6.1-2.3,8.4,0s2.3,6.1,0,8.4
	L263.9,114l8.6,8.6c2.3,2.3,2.3,6.1,0,8.4L253,150.5l12.6,12.6l0,0c1.1,1.1,1.8,2.6,1.8,4.2c0,1.6-0.6,3.1-1.8,4.2L137.4,300.1
	l14.9,14.9l0,0c1.5,1,2.5,2.6,2.6,4.4c0.2,1.8-0.5,3.6-1.8,4.8c-1.3,1.2-3.1,1.8-4.9,1.6c-1.8-0.3-3.4-1.3-4.3-2.9l-30.3-30.3
	l-28.1,28.1L96.6,332l0,0c2.3,2.3,2.3,6.1,0,8.4C95.5,341.5,94,342.1,92.4,342L92.4,342z M56.4,291.7L77,312.2l28.1-28.1l-20.6-20.5
	L56.4,291.7z M78.6,239.7l50.9,51.1L253,167.6l-50.6-51.4l-24.8,24.6l20.7,20.7c2,2.4,1.9,5.9-0.3,8.1c-2.2,2.2-5.7,2.3-8.1,0.3
	l-20.7-20.7l-24.6,24.6l20.7,20.6c2.3,2.3,2.3,6.1,0,8.4c-2.3,2.3-6.1,2.3-8.4,0L136.2,182l-24.6,24.6l20.7,20.7l0,0
	c2.3,2.3,2.3,6,0,8.4c-2.3,2.3-6.1,2.3-8.4,0L103.2,215L78.6,239.7z M227.4,124.7l17.2,17.2l15.2-15.3l-17.2-17.2L227.4,124.7z
	 M312.4,230.3c-8.4-0.4-16.3-4.1-22-10.3s-8.8-14.3-8.6-22.7c0-30.4,25.7-52.6,26.8-53.6c2.2-1.9,5.5-1.9,7.7,0
	c1.1,0.9,26.8,23.1,26.8,53.6c0.2,8.4-2.8,16.6-8.6,22.8C328.7,226.2,320.8,229.9,312.4,230.3L312.4,230.3z M312.4,156.6
	c-6.4,6.8-18.9,22.2-18.9,40.7c-0.6,5.3,1.1,10.6,4.7,14.6s8.7,6.3,14,6.3c5.4,0,10.5-2.3,14-6.3c3.6-4,5.3-9.3,4.7-14.6
	c0-18.4-12.1-33.9-18.6-40.5L312.4,156.6z M58.1,199.5L58.1,199.5c-1.6,0-3.1-0.6-4.2-1.7l-8.5-8.8l-9.1-8.8c-2.3-2.3-2.3-6.1,0-8.4
	c1.1-1.1,2.6-1.8,4.2-1.8s3.1,0.6,4.2,1.8l4.5,4.5l14.5-14.5l0,0c-7.1-8.7-11.5-19.2-12.6-30.3H30.9v6.4c0.2,1.7-0.4,3.3-1.5,4.6
	c-1.1,1.2-2.7,1.9-4.4,1.9c-1.7,0-3.3-0.7-4.4-1.9s-1.7-2.9-1.5-4.6v-12.1v-0.3v-0.3v-12c-0.2-1.7,0.4-3.3,1.5-4.6
	c1.1-1.2,2.7-1.9,4.4-1.9c1.7,0,3.3,0.7,4.4,1.9c1.1,1.2,1.7,2.9,1.5,4.6v6.2h20.4c1.2-11.2,5.6-21.7,12.6-30.4L49.5,74.5L45,79.1
	c-1.1,1.1-2.6,1.8-4.2,1.8c-1.6,0-3.1-0.6-4.2-1.8c-2.1-2.2-2.2-5.6-0.3-8l8.5-8.5v-0.3h0.3l8.5-8.5c2.3-2.3,6.1-2.3,8.4,0
	c1.1,1.1,1.8,2.6,1.8,4.2c0,1.6-0.6,3.1-1.8,4.2l-4.5,4.5L72,81.1l0,0c8.7-7,19.2-11.4,30.3-12.5V47.9h-6.4c-3.3,0-5.9-2.7-5.9-5.9
	c0-3.3,2.7-6,5.9-6h24.7c3.3,0,5.9,2.7,5.9,6s-2.7,5.9-5.9,5.9h-6.1v20.5c11.1,1.2,21.6,5.6,30.3,12.7l14.8-14.6l-4.6-4.6
	c-1.3-1.1-2-2.6-2.1-4.3s0.6-3.3,1.7-4.4c1.2-1.2,2.8-1.8,4.4-1.8c1.7,0.1,3.2,0.8,4.3,2.1l8.6,8.5v0.3l8.7,8.9
	c2,2.4,1.9,5.9-0.3,8.1s-5.7,2.3-8.1,0.3l-4.5-4.5l-14.6,14.5c4.9,6,8.6,12.9,10.7,20.3c0.6,1.6,0.5,3.3-0.3,4.8s-2.1,2.6-3.7,3
	c-1.6,0.4-3.3,0.2-4.7-0.7c-1.4-0.9-2.4-2.3-2.7-3.9c-2.7-9.4-8.3-17.6-16-23.6c-7.7-5.9-17.1-9.3-26.8-9.5h-1.3
	C96.6,80,85.4,84.5,77,92.6l-0.6,0.7l-0.8,0.6c-8.3,8.5-12.9,19.9-12.9,31.7s4.6,23.2,12.9,31.7l0.5,0.5l0.5,0.6l0,0
	c5.3,5.2,11.9,9,19.1,11c3.2,0.9,5,4.2,4.1,7.3s-4.2,5-7.3,4.1c-7.5-2.1-14.4-5.8-20.4-10.7l-14.4,14.5l4.6,4.6l0,0
	c1.1,1.1,1.8,2.6,1.8,4.2c0,1.6-0.6,3.1-1.8,4.2c-1.1,1.1-2.6,1.7-4.2,1.7L58.1,199.5z M84.2,131.6L84.2,131.6c-3.3,0-6-2.7-6-5.9
	c0-8,3.2-15.6,8.8-21.3c5.6-5.6,13.3-8.8,21.3-8.8c1.7-0.2,3.3,0.4,4.6,1.5c1.2,1.1,1.9,2.7,1.9,4.4c0,1.7-0.7,3.3-1.9,4.4
	c-1.2,1.1-2.9,1.7-4.6,1.5c-4.8,0-9.5,1.9-12.9,5.4c-3.4,3.4-5.3,8.1-5.3,12.9C90,128.9,87.4,131.5,84.2,131.6L84.2,131.6z"/>
</svg>
