<?xml version="1.0" encoding="utf-8"?>
<!-- Generator: Adobe Illustrator 26.2.1, SVG Export Plug-In . SVG Version: 6.00 Build 0)  -->
<svg version="1.1" id="Layer_1" xmlns="http://www.w3.org/2000/svg" xmlns:xlink="http://www.w3.org/1999/xlink" x="0px" y="0px"
	 viewBox="0 0 360 360" style="enable-background:new 0 0 360 360;" xml:space="preserve">
<style type="text/css">
	.st0{fill:#444345;}
</style>
<g>
	<path class="st0" d="M307,292.3c23.9-27.8,37.1-62.7,37.4-99.6c0.1-0.3,0.1-0.7,0.1-1.1c0-0.4,0-0.7-0.1-1.1
		c-0.2-41-16.3-79.5-45.2-108.5c-29.3-29.2-68.1-45.2-109.4-45.2c-12.5,0-24.8,1.5-36.8,4.4C138.3,24,116.9,13.9,93.6,13.9
		c-43.1,0-78.1,35-78.1,78.1c0,22.8,9.8,43.3,25.4,57.6c-3.8,13.6-5.7,27.6-5.7,41.8c0,37.6,13.3,73.1,37.8,101.3
		c0.1,0.1,0.2,0.3,0.3,0.4c0.2,0.2,0.4,0.5,0.7,0.7c2.1,2.4,4.3,4.7,6.6,7c29.2,29.2,68.1,45.3,109.4,45.3
		c41.3,0,80.1-16.1,109.3-45.3c2.3-2.3,4.4-4.6,6.5-7c0.3-0.2,0.5-0.5,0.8-0.7C306.7,292.8,306.9,292.5,307,292.3z M161.8,130
		c7.4,0.8,15.1,1.3,23.1,1.5v55.2h-57.5c0.1-8.6,0.6-16.9,1.3-24.7C142.9,154.7,154.3,143.5,161.8,130z M243,115.4
		c-15,3.6-31.3,5.7-48.1,6V47.6c14.2,2.6,27.7,16.7,38.3,40.4C237,96.3,240.3,105.5,243,115.4z M245.5,257.8
		c-15.7-3.7-32.8-5.9-50.6-6.2v-55h57.6C252.2,218.2,249.8,239,245.5,257.8z M194.9,186.6v-55.2c17.8-0.3,34.9-2.5,50.6-6.2
		c4.3,18.8,6.7,39.6,7.1,61.3H194.9z M184.9,196.6v55c-17.7,0.3-34.8,2.5-50.4,6.2c-4.3-18.7-6.7-39.5-7-61.1H184.9z M184.9,121.4
		c-6.1-0.1-12.3-0.5-18.5-1.1c3.5-8.9,5.3-18.4,5.3-28.2c0-11.4-2.3-22.2-6.9-32.3c6.5-6.8,13.2-10.9,20.1-12.2V121.4z M136.9,267.6
		c14.9-3.5,31.2-5.6,48-6v73.9c-14.1-2.7-27.5-16.8-38.1-40.3C143,286.9,139.7,277.6,136.9,267.6z M262.5,186.6
		c-0.3-22.5-2.9-44.2-7.4-63.9c18.4-5.3,34.5-13,46.8-22.5c19.3,23.7,31.3,53.7,32.4,86.4H262.5z M243,267.6
		c-2.7,9.9-6,19.2-9.8,27.7c-10.6,23.6-24.1,37.7-38.3,40.4v-74C211.7,262,228,264.1,243,267.6z M252.7,112.9
		c-2.9-10.4-6.3-20.2-10.3-29.1c-6.6-14.6-14.4-26-22.9-33.9c29.6,6.2,55.9,21.5,75.8,42.7C284.2,101,269.5,107.9,252.7,112.9z
		 M159.8,50.5c-0.1-0.2-0.2-0.3-0.3-0.5c0.4-0.1,0.7-0.2,1.1-0.2C160.3,50,160.1,50.3,159.8,50.5z M117.4,196.6
		c0.3,22.4,2.9,44.1,7.4,63.7c-18.4,5.3-34.5,13-46.9,22.5c-19.4-23.7-31.4-53.6-32.5-86.2H117.4z M127.2,270.2
		c2.9,10.5,6.3,20.2,10.3,29.1c6.5,14.4,14.2,25.7,22.6,33.6c-29.4-6.2-55.6-21.3-75.5-42.5C95.7,282,110.4,275.1,127.2,270.2z
		 M242.4,299.4c4-8.9,7.5-18.8,10.4-29.3c16.8,4.9,31.4,11.7,42.5,20.1c-19.9,21.2-46,36.4-75.4,42.6
		C228.2,325,235.9,313.7,242.4,299.4z M255.2,260.3c4.5-19.6,7-41.3,7.4-63.7h71.8c-1.2,32.6-13.1,62.4-32.5,86.1
		C289.5,273.2,273.5,265.6,255.2,260.3z M93.6,23.9c21.2,0,40.8,9.7,53.5,25.9c0.1,0.1,0.2,0.2,0.3,0.3c2.6,3.4,4.9,7,6.9,10.9
		c4.9,9.7,7.4,20.1,7.4,31c0,26.5-15.6,50.8-39.9,61.9c-8.8,4.1-18.3,6.2-28.2,6.2c-16.6,0-31.8-6-43.6-15.9
		c-0.1-0.1-0.2-0.2-0.3-0.3c-14.8-12.5-24.2-31.2-24.2-52C25.5,54.4,56,23.9,93.6,23.9z M93.6,170.1c8.4,0,16.7-1.3,24.7-3.9
		c-0.5,6.8-0.8,13.7-0.9,20.4H45.3c0.3-10.3,1.7-20.4,4.2-30.2C62,165,77.2,170.1,93.6,170.1z"/>
	<path class="st0" d="M72.3,110.8c0-2.7-2.2-4.9-5.1-4.9c-1.4,0-2.7,0.6-3.6,1.6c-0.9,1-1.4,2.4-1.3,3.6
		c0.6,15.2,12.9,24.1,26.3,26.2v7.6c0,2.8,2.2,5,5,5s5-2.2,5-5v-7.3c6.2-0.6,12-2.7,16.6-6c6.3-4.6,9.6-11.1,9.6-18.9
		c0-16.2-13.7-21-26.2-24.3V56.7c8.6,1.4,16,6.6,16.4,16.4c0,1.4,0.6,2.7,1.6,3.6c1,0.9,2.3,1.4,3.6,1.3c1.3,0,2.6-0.6,3.5-1.6
		c0.9-1,1.4-2.4,1.3-3.6c-0.3-8.6-4.1-15.7-11-20.5c-4.3-3-9.7-5-15.4-5.7v-7.3c0-2.8-2.2-5-5-5s-5,2.2-5,5v7.3
		c-13.5,1.6-26.1,10.2-26.1,24.8c0,16.3,13.6,21.3,26.1,24.7v31C80.1,125.4,72.6,120.1,72.3,110.8z M88.6,56.7v29
		c-11.7-3.5-16.1-6.8-16.1-14.2C72.5,62.7,80.2,57.9,88.6,56.7z M98.6,127.4V98.6c11.8,3.4,16.2,6.6,16.2,14
		C114.8,121.6,107.1,126.3,98.6,127.4z"/>
</g>
</svg>
