<svg class="w-auto"
	xmlns="http://www.w3.org/2000/svg" viewBox="0 0 934.5 379.6">
	<style>
		.cls-1 {
			fill: #54565a;
		}
		.cls-2 {
			fill: #ee7623;
		}
	</style>
	<path d="M70.5 312.2V88.7l-35.3 35.4v220.2h35.3v-32.1zM165 35.9H107V71h56.4c23.8 0 34.8 11.9 34.8 35.7v166.5c0 23.8-11 35.7-34.8 35.7h-21.2V88.7L107 124v220.3h58.2c46.2 0 68.3-22 68.3-68.3V104.2c0-46.3-22-68.3-68.3-68.3ZM269.8 35.9h35.3V309h-35.3zM305 309.1l-35.2 35.2h93.4v-35.2H305z" class="cls-1" />
	<path d="M35.3 35.9h35.2V71H35.3ZM382.1 234.4c-3.6 0-5-1.4-5.6-4.8l-13.2-83.5c-.7-4 1-6 5-6h.3c3 0 4.8 1.5 5.2 4.4l9.5 70.3 9.5-70.4c.4-2.8 2-4.3 5-4.3h.3c4.2 0 5.7 1.8 5 5.9l-13.3 83.7c-.5 3.3-2 4.8-5.6 4.8ZM437.7 146.5c0-4.4 1.7-6.1 6.1-6.1h18.7c3.7 0 4.9 1.2 4.9 4.8v.3c0 3.6-1.2 4.8-4.9 4.8h-14.1v31H462c3.4 0 4.7 1.3 4.7 4.6v.3c0 3.4-1.3 4.8-4.7 4.8h-13.6v33h14.4c3.6 0 4.8 1.2 4.8 4.8v.3c0 3.6-1.2 4.8-4.8 4.8h-19c-4.4 0-6.1-1.7-6.1-6.1ZM534.8 234.2c-3.3 0-5.3-1.6-6-4.8l-15.7-69v68.8c0 3.3-1.6 5-5 5h-.2c-3.4 0-5-1.7-5-5v-83c0-4.4 1.7-6.2 6.1-6.2h3.6c3.4 0 5.4 1.6 6 4.8l14.5 63.2v-63c0-3.3 1.6-5 5-5h.2c3.4 0 5 1.7 5 5v83c0 4.5-1.7 6.2-6.1 6.2ZM601.1 150.3V229c0 3.8-1.5 5.2-5.2 5.2h-.3c-3.7 0-5.2-1.4-5.2-5.2v-78.7H581c-3.6 0-4.8-1.2-4.8-4.9v-.2c0-3.6 1.2-4.8 4.8-4.8h29.7c3.6 0 4.8 1.2 4.8 4.8v.2c0 3.7-1.2 4.9-4.8 4.9ZM681 140.1c3.7 0 5.2 1.5 5.2 5.2v72c0 11.6-5.7 17.4-17.4 17.4h-3.3c-11.6 0-17.4-5.8-17.4-17.4v-72c0-3.7 1.5-5.2 5.2-5.2h.3c3.7 0 5.2 1.5 5.2 5.2V218c0 4.7 2.4 7 7.1 7h2.5c4.7 0 7.1-2.3 7.1-7v-72.6c0-3.7 1.5-5.2 5.2-5.2ZM760.3 175.1c0 7.6-2.8 12.4-8.3 14.7 5.6 1.5 8.4 5.8 8.4 12.6V229c0 3.8-1.5 5.2-5.2 5.2h-.3c-3.7 0-5.2-1.4-5.2-5.2v-26.2c0-5.5-2.7-8.2-8.1-8.2h-8V229c0 3.8-1.4 5.2-5.1 5.2h-.3c-3.8 0-5.2-1.4-5.2-5.2v-82.5c0-4.4 1.7-6.1 6.1-6.1H743c11.6 0 17.4 5.7 17.4 17.3Zm-10.7-17.9c0-4.7-2.4-7-7.1-7h-8.8v35h8c5.2 0 7.9-2.7 7.9-8ZM797 146.5c0-4.4 1.7-6.1 6.2-6.1h18.7c3.6 0 4.8 1.2 4.8 4.8v.3c0 3.6-1.2 4.8-4.8 4.8h-14.2v31h13.6c3.4 0 4.7 1.3 4.7 4.6v.3c0 3.4-1.3 4.8-4.7 4.8h-13.6v33h14.4c3.7 0 4.9 1.2 4.9 4.8v.3c0 3.6-1.2 4.8-4.9 4.8h-19c-4.4 0-6.1-1.7-6.1-6.1ZM890.3 186.3c6.8 5 9 9.4 9 17.4v13.6c0 11.7-5.8 17.4-17.4 17.4h-3c-11.3 0-17-5.7-17-17v-15c0-3.5 1.4-5 5-5h.3c3.6 0 5 1.5 5 5V218c0 4.7 2.4 7 7.1 7h2.2c4.6 0 7-2.3 7-7v-14c0-4.4-1.3-6.4-4.6-9l-13.1-9.4c-6.8-4.8-9-9.5-9-17.4v-11.3c0-11.6 5.8-17.3 17.4-17.3h2.7c11.3 0 17 5.7 17 17v12c0 3.7-1.4 5.1-5 5.1h-.3c-3.6 0-5-1.4-5-5v-12.4c0-4.7-2.5-7.1-7.1-7.1h-2c-4.6 0-7 2.4-7 7V168c0 4.4 1.5 6.4 4.8 9Z" class="cls-2" />
</svg>
