<?xml version="1.0" encoding="utf-8"?>
<!-- Generator: Adobe Illustrator 26.2.1, SVG Export Plug-In . SVG Version: 6.00 Build 0)  -->
<svg version="1.1" id="Layer_1" xmlns="http://www.w3.org/2000/svg" xmlns:xlink="http://www.w3.org/1999/xlink" x="0px" y="0px"
	 viewBox="0 0 360 360" style="enable-background:new 0 0 360 360;" xml:space="preserve">
<style type="text/css">
	.st0{fill:#444345;}
</style>
<path class="st0" d="M160.1,236.8l-20.4,35.3l20.4,35.3h40.8l20.4-35.3l-20.4-35.3H160.1z M196.5,299.9h-32l-16-27.7l16-27.7h32
	l16,27.7L196.5,299.9z M200.3,199.6l20.1-34.7l-20.1-34.7h-40.1l-20.1,34.7l20.1,34.7H200.3z M164.6,137.7h31.3l15.7,27.1L195.9,192
	h-31.3l-15.7-27.1L164.6,137.7z M125.5,218.2l-20.1-34.7h-40l-20.1,34.7l20.1,34.7h40.1L125.5,218.2z M69.8,245.3l-15.7-27.1
	l15.7-27.1h31.3l15.7,27.1l-15.7,27.1H69.8z M321.7,253.7c-10,0-18.3,7.3-20,16.8h-55.4l-22-38.2h34.3c1.4,9.9,9.8,17.5,20.1,17.5
	c11.2,0,20.3-9.1,20.3-20.3s-9.1-20.3-20.3-20.3c-9.5,0-17.5,6.6-19.7,15.5h-39.1l-3.6-6.2l29.1-50.5h56.3c1.5,9.7,9.9,17.1,20,17.1
	c11.2,0,20.3-9.1,20.3-20.3s-9.1-20.3-20.3-20.3c-9.7,0-17.8,6.8-19.8,15.9h-56.5l-31.5-54.6h-5.4V85.2c9.5-1.7,16.8-10,16.8-20
	c0-11.2-9.1-20.3-20.3-20.3s-20.3,9.1-20.3,20.3c0,9.8,6.9,17.9,16.2,19.9v20.7H160V61.2c9.7-1.5,17.1-9.9,17.1-20
	c0-11.2-9.1-20.3-20.3-20.3s-20.3,9.1-20.3,20.3c0,9.7,6.8,17.8,15.9,19.8v44.9h-5.9L115,160.4H51.7L18,218.8l33.7,58.4h62.2
	l32.2,55.8h68.1l5.6-9.7h39c2.1,9,10.1,15.8,19.8,15.8c11.2,0,20.3-9.1,20.3-20.3s-9.1-20.3-20.3-20.3c-10.1,0-18.5,7.5-20,17.2
	h-34.3l21.7-37.6h55.9c1.9,9.2,10.1,16.2,19.9,16.2c11.2,0,20.3-9.1,20.3-20.3C342,262.8,332.9,253.7,321.7,253.7L321.7,253.7z
	 M278.6,216.8c7,0,12.7,5.7,12.7,12.7s-5.7,12.7-12.7,12.7s-12.7-5.7-12.7-12.7C266,222.5,271.6,216.8,278.6,216.8z M321.7,152.1
	c7,0,12.7,5.7,12.7,12.7s-5.7,12.7-12.7,12.7s-12.7-5.7-12.7-12.7S314.7,152.1,321.7,152.1z M192.4,65.3c0-7,5.7-12.7,12.7-12.7
	s12.7,5.7,12.7,12.7S212.1,78,205.1,78C198.1,77.9,192.4,72.2,192.4,65.3z M144.2,41.2c0-7,5.7-12.7,12.7-12.7s12.7,5.7,12.7,12.7
	s-5.7,12.7-12.7,12.7C149.8,53.9,144.2,48.2,144.2,41.2z M278.6,306.1c7,0,12.7,5.7,12.7,12.7s-5.7,12.7-12.7,12.7
	s-12.7-5.7-12.7-12.7C265.9,311.8,271.6,306.1,278.6,306.1z M150.9,113.4h58.6l29.3,50.8L209.5,215h-58.6l-29.3-50.8L150.9,113.4z
	 M26.8,218.8L56.1,168h58.6l29.3,50.7l-29.4,50.9H56.1L26.8,218.8z M209.9,325.4h-59.3L121,274.1l29.7-51.5h59.2l29.7,51.4
	L209.9,325.4z M321.7,286.7c-7,0-12.7-5.7-12.7-12.7s5.7-12.7,12.7-12.7s12.7,5.7,12.7,12.7C334.4,281,328.7,286.7,321.7,286.7z"/>
</svg>
