<?xml version="1.0" encoding="utf-8"?>
<!-- Generator: Adobe Illustrator 26.2.1, SVG Export Plug-In . SVG Version: 6.00 Build 0)  -->
<svg version="1.1" id="Layer_1" xmlns="http://www.w3.org/2000/svg" xmlns:xlink="http://www.w3.org/1999/xlink" x="0px" y="0px"
	 viewBox="0 0 360 360" style="enable-background:new 0 0 360 360;" xml:space="preserve">
<style type="text/css">
	.st0{fill:#444345;}
</style>
<g>
	<path class="st0" d="M324.3,128.9v-0.5c0-2.8-2.3-5.1-5.1-5.1h-48.9c-1.4,0-2.8,0.6-3.8,1.6l-12.6,12.6c-2,2-2,5.3,0,7.3l0.4,0.4
		c2,2,5.3,2,7.3,0l8.8-8.8V183c0,2.8,2.3,5.1,5.1,5.1h0.5c2.8,0,5.1-2.3,5.1-5.1v-49h16.2v32.4c0,1.4,0.6,2.8,1.6,3.8l9.9,9.9
		c2,2,5.3,2,7.3,0l0.4-0.4c2-2,2-5.3,0-7.3l-8.3-8.3V134h11.1C322,134,324.3,131.7,324.3,128.9z"/>
	<path class="st0" d="M179.9,228.6l-6.2,6.2l-0.5-0.2v-8.8c0-3-2.4-5.4-5.4-5.4h-21.6c-3,0-5.4,2.4-5.4,5.4v8.8l-0.5,0.2l-6.2-6.2
		c-1-1-2.4-1.6-3.8-1.6c-1.4,0-2.8,0.6-3.8,1.6l-15.3,15.3c-1,1-1.6,2.4-1.6,3.8s0.6,2.8,1.6,3.8l6.2,6.2l-0.2,0.5h-8.8
		c-3,0-5.4,2.4-5.4,5.4v21.6c0,3,2.4,5.4,5.4,5.4h8.8l0.2,0.5l-6.2,6.2c-1,1-1.6,2.4-1.6,3.8s0.6,2.8,1.6,3.8l15.3,15.3
		c2,2,5.6,2,7.6,0l6.2-6.2l0.5,0.2v8.8c0,3,2.4,5.4,5.4,5.4h21.6c3,0,5.4-2.4,5.4-5.4v-8.8l0.5-0.2l6.2,6.2c1,1,2.4,1.6,3.8,1.6
		c1.4,0,2.8-0.6,3.8-1.6l15.3-15.3c1-1,1.6-2.4,1.6-3.8s-0.6-2.8-1.6-3.8l-6.2-6.2l0.2-0.5h8.8c3,0,5.4-2.4,5.4-5.4v-21.6
		c0-3-2.4-5.4-5.4-5.4h-8.8l-0.2-0.5l6.2-6.2c1-1,1.6-2.4,1.6-3.8s-0.6-2.8-1.6-3.8l-15.3-15.3C185.5,226.6,181.9,226.6,179.9,228.6
		L179.9,228.6z M191.3,247.7l-4.9,4.9c-1.5,1.5-2,3.9-1.2,5.9l3,7.2c0.8,2,2.8,3.3,5,3.3h7v10.8h-7c-2.2,0-4.2,1.3-5,3.3l-3,7.2
		c-0.8,2-0.4,4.3,1.2,5.9l4.9,4.9l-7.6,7.6l-4.9-4.9c-1.5-1.5-3.9-2-5.9-1.2l-7.2,3c-2,0.8-3.3,2.8-3.3,5v7h-10.8v-7
		c0-2.2-1.3-4.2-3.3-5l-7.2-3c-2-0.8-4.3-0.4-5.9,1.2l-4.9,4.9l-7.6-7.6l4.9-4.9c1.5-1.5,2-3.9,1.2-5.9l-3-7.2c-0.8-2-2.8-3.3-5-3.3
		h-7V269h7c2.2,0,4.2-1.3,5-3.3l3-7.2c0.8-2,0.4-4.3-1.2-5.9l-4.9-4.9l7.6-7.6l4.9,4.9c1.5,1.5,3.9,2,5.9,1.2l7.2-3
		c2-0.8,3.3-2.8,3.3-5v-7h10.8v7c0,2.2,1.3,4.2,3.3,5l7.2,3c2,0.8,4.3,0.4,5.9-1.2l4.9-4.9L191.3,247.7z"/>
	<path class="st0" d="M156.9,252.8c-11.9,0-21.6,9.7-21.6,21.6S145,296,156.9,296s21.6-9.7,21.6-21.6S168.9,252.8,156.9,252.8z
		 M156.9,285.2c-6,0-10.8-4.8-10.8-10.8s4.8-10.8,10.8-10.8s10.8,4.8,10.8,10.8C167.7,280.4,162.9,285.2,156.9,285.2z"/>
	<path class="st0" d="M286.5,58.4h10.8v10.8h-10.8V58.4z"/>
	<path class="st0" d="M286.5,80h10.8v10.8h-10.8V80z"/>
	<path class="st0" d="M286.5,101.6h10.8v10.8h-10.8V101.6z"/>
	<path class="st0" d="M304.3,195l-30.8,30.8h-56.6l-22.2-34V80c7.9-0.3,14.8-6,16-13.5c0.8-4.7-0.6-9.5-3.6-13.2
		c-3.1-3.6-7.6-5.7-12.3-5.7h-32.4v-5.4c0-3,2.4-5.4,5.4-5.4h113.4c3,0,5.4,2.4,5.4,5.4v5.4h10.8v-5.4c0-8.9-7.3-16.2-16.2-16.2
		H167.7c-8.9,0-16.2,7.3-16.2,16.2v5.4h-31.8c-8.2,0-15.3,5.8-16.6,13.5c-0.8,4.7,0.6,9.5,3.6,13.2c3.1,3.6,7.6,5.7,12.3,5.7v111.8
		l-8.1,12.4H92.1V90.8c0-1.4-0.6-2.8-1.6-3.8L35,31.4c-2.1-2.1-5.5-2.1-7.6,0l0,0c-2.1,2.1-2.1,5.5,0,7.6l54,54v116.6
		c0,3,2.4,5.4,5.4,5.4H104l-10.6,16.2h-26l-13-13V107c0-3-2.4-5.4-5.4-5.4H27.3c-3,0-5.4,2.4-5.4,5.4l0,0c0,3,2.4,5.4,5.4,5.4h16.2
		v108c0,1.4,0.6,2.8,1.6,3.8l16.2,16.2c1,1,2.4,1.6,3.8,1.6h21.3l-10.6,16.2H27.3c-3,0-5.4,2.4-5.4,5.4l0,0c0,3,2.4,5.4,5.4,5.4
		h41.5L39,314.7c-0.6,0.9-0.9,1.9-0.9,2.9v5.4c0,14.9,12.1,27,27,27h183.6c14.9,0,27-12.1,27-27v-5.4h35.6l21.6,21.6
		c2.1,2.1,5.5,2.1,7.6,0l0,0c2.1-2.1,2.1-5.5,0-7.6l-23.2-23.2c-1-1-2.4-1.6-3.8-1.6h-43.8l-10.6-16.2h81.4c3,0,5.4-2.4,5.4-5.4l0,0
		c0-3-2.4-5.4-5.4-5.4h-88.4l-10.6-16.2h61.2c1.4,0,2.8-0.6,3.8-1.6l20-20h14c3,0,5.4-2.4,5.4-5.4l0,0c0-3-2.4-5.4-5.4-5.4h-16.2
		c-1.4,0-2.8,0.6-3.8,1.6l-20,20h-66L224,236.6h51.8c1.4,0,2.8-0.6,3.8-1.6l30.8-30.8h30.2c3,0,5.4-2.4,5.4-5.4l0,0
		c0-3-2.4-5.4-5.4-5.4h-32.4C306.7,193.4,305.3,194,304.3,195L304.3,195z M115,67.3c-1-1.2-1.5-2.8-1.2-4.4c0.4-2.5,3-4.5,5.9-4.5
		h31.8v33.4c-6.6,2.4-11.3,8.8-10.8,16.4c0.6,8,7,14.4,15,15c9.5,0.7,17.4-6.8,17.4-16.2c0-7-4.5-13-10.8-15.2V58.4h32.4
		c1.6,0,3.1,0.7,4.1,1.9s1.5,2.8,1.2,4.4c-0.4,2.5-3,4.5-5.9,4.5h-4.8c-3,0-5.4,2.4-5.4,5.4V161h-54V74.6c0-3-2.4-5.4-5.4-5.4h-5.4
		C117.6,69.2,116,68.5,115,67.3L115,67.3z M162.3,107c0,3-2.4,5.4-5.4,5.4s-5.4-2.4-5.4-5.4s2.4-5.4,5.4-5.4
		C159.9,101.6,162.3,104,162.3,107z M264.9,323c0,8.9-7.3,16.2-16.2,16.2H65.1c-8.9,0-16.2-7.3-16.2-16.2v-3.8L129,196.3
		c0.6-0.9,0.9-1.9,0.9-2.9v-21.6h54v21.6c0,1,0.3,2.1,0.9,2.9l80.1,122.9V323z"/>
	<path class="st0" d="M248.7,161h10.8v10.8h-10.8V161z"/>
	<path class="st0" d="M227.1,161h10.8v10.8h-10.8V161z"/>
	<path class="st0" d="M205.5,161h10.8v10.8h-10.8V161z"/>
</g>
</svg>
